<svg width="156" height="76" viewBox="0 0 156 76" fill="none" xmlns="http://www.w3.org/2000/svg">
    <path d="M12.7799 44.355C11.5129 44.3538 10.3464 43.6971 9.73324 42.6396C9.12006 41.5822 9.15681 40.2907 9.82922 39.2665L16.1031 29.7133C16.7475 28.673 17.9329 28.0482 19.1992 28.0813C20.4655 28.1144 21.6133 28.8003 22.197 29.8726C22.7807 30.9449 22.7084 32.2349 22.0081 33.2418L15.738 42.795C15.1002 43.767 13.9821 44.3567 12.7799 44.355Z" fill="#FB275D"/>
    <path d="M23.114 44.355C21.8492 44.3538 20.6845 43.6986 20.0724 42.6437C19.4602 41.5888 19.4969 40.3003 20.1682 39.2786L26.4299 29.748C27.0642 28.6927 28.2538 28.0529 29.5296 28.081C30.8055 28.1091 31.9628 28.8005 32.5453 29.8827C33.1277 30.9649 33.0419 32.2642 32.3216 33.2682L26.0599 42.7987C25.4246 43.7663 24.3116 44.3542 23.114 44.355Z" fill="#FFCC00"/>
    <path d="M34.0749 44.6008C36.0018 44.6008 37.5638 43.0559 37.5638 41.15C37.5638 39.2442 36.0018 37.6992 34.0749 37.6992C32.148 37.6992 30.5859 39.2442 30.5859 41.15C30.5859 43.0559 32.148 44.6008 34.0749 44.6008Z" fill="#00CA72"/>
    <path fill-rule="evenodd" clip-rule="evenodd" d="M131.493 44.0737C129.907 44.0737 128.547 42.8967 128.547 41.101L128.535 41.107C128.535 39.3113 129.895 38.1707 131.493 38.1647C132.302 38.1481 133.081 38.4783 133.639 39.0747L132.816 39.7784C132.462 39.4295 131.986 39.2375 131.493 39.2445C130.491 39.2445 129.62 39.9604 129.62 41.101C129.621 41.8713 130.077 42.5658 130.776 42.8606C131.476 43.1553 132.281 42.9924 132.816 42.4478L133.651 43.1515C133.091 43.7536 132.307 44.0883 131.493 44.0737ZM137.044 44.0737C135.458 44.0737 134.134 42.8967 134.134 41.101C134.134 39.3052 135.458 38.1647 137.044 38.1647C138.63 38.1647 139.966 39.3052 139.966 41.101C139.966 42.8967 138.623 44.0797 137.036 44.0797L137.044 44.0737ZM148.716 40.7552C148.716 39.8209 148.239 39.2506 147.44 39.2506C146.514 39.2385 145.949 39.9543 145.949 40.9008V43.9584H144.87V40.743C144.87 39.8087 144.393 39.2506 143.665 39.2506C142.89 39.2506 142.115 39.7117 142.115 40.9008V43.9584H141.03V38.2921H142.115V39.1414C142.413 38.5105 143.206 38.2314 143.654 38.195C143.857 38.1822 144.061 38.1944 144.262 38.2314C144.909 38.3 145.467 38.7238 145.717 39.3355C146.235 38.3224 147.106 38.1707 147.654 38.1707C149.056 38.1707 149.801 39.0929 149.801 40.6824V43.9584H148.716V40.7552ZM138.366 42.4627C138.019 42.8233 137.54 43.022 137.044 43.012H137.036C136.541 43.0199 136.065 42.8202 135.719 42.4599C135.373 42.0996 135.188 41.6104 135.207 41.107C135.207 39.9665 136.042 39.2506 137.044 39.2506C138.046 39.2506 138.88 39.9665 138.88 41.107C138.9 41.6117 138.714 42.1022 138.366 42.4627Z" fill="#333333"/>
    <path fill-rule="evenodd" clip-rule="evenodd" d="M128.203 32.3981H124.358L121.663 39.2278L118.982 32.3981H115.138L119.813 43.1904L116.904 50.3244H120.722L128.203 32.3981ZM105.197 38.421C105.197 40.1949 106.727 41.3613 108.231 41.3613C109.71 41.3613 111.161 40.2759 111.161 38.421C111.161 36.5662 109.71 35.4792 108.231 35.4792C106.727 35.4792 105.197 36.6471 105.197 38.421ZM111.048 44.4878V43.114C110.283 44.2815 108.496 44.7225 107.578 44.7225C104.542 44.7225 101.504 42.3113 101.504 38.4203C101.504 34.5292 104.54 32.118 107.578 32.118C108.343 32.118 110.13 32.3766 111.048 33.7265V32.3811H114.57V44.4893L111.048 44.4878ZM100.368 44.4613H96.8479V42.9511C96.2597 44.071 94.8334 44.7225 93.3526 44.7225C90.2911 44.7225 87.5869 42.2486 87.5869 38.4176C87.5869 34.5146 90.2911 32.0377 93.3526 32.0377C94.8319 32.0377 96.2612 32.6622 96.8479 33.782V25.6758H100.368V44.4613ZM96.9598 38.3945C96.9598 36.5569 95.6185 35.4792 94.1196 35.4792C92.5676 35.4792 91.2793 36.6341 91.2793 38.3945C91.2793 40.2109 92.5676 41.3613 94.1196 41.3613C95.6458 41.3628 96.9598 40.1549 96.9598 38.3945ZM78.9224 38.0605C78.9224 36.2257 79.8673 35.6061 81.1183 35.6061C82.3179 35.6061 83.1863 36.4074 83.1863 38.0084V44.4424H86.7348V37.2339C86.7348 33.798 85.0496 32.118 82.3679 32.118C80.9638 32.118 79.5597 32.9193 78.9209 34.1331V32.3787H75.3738V44.4424H78.9224V38.0605ZM67.9772 44.721C64.5767 44.721 61.7405 42.2276 61.7405 38.4075C61.7405 34.5874 64.5737 32.118 67.9772 32.118C71.3806 32.118 74.2377 34.5859 74.2377 38.4075C74.2377 42.2291 71.3777 44.7225 67.9772 44.7225V44.721ZM68.119 41.0797C69.6016 41.0797 70.8293 39.9748 70.8293 38.2667C70.8293 36.6102 69.6016 35.4796 68.119 35.4796C67.3988 35.4674 66.7051 35.7579 66.1981 36.2841C65.6912 36.8102 65.4151 37.5263 65.4337 38.2667C65.4352 39.9763 66.6614 41.0812 68.119 41.0812V41.0797ZM55.3745 35.6093C56.4255 35.6093 57.3494 36.4356 57.3494 38.0107V44.4424H60.8884V37.5939C60.8884 33.9523 59.1145 32.118 56.2718 32.118C55.4262 32.118 53.8356 32.3756 52.6811 34.2619C52.0144 32.8669 50.7327 32.1434 48.8376 32.1434C47.4986 32.1339 46.2768 32.9108 45.7096 34.1324V32.3816H42.1426V44.4409H45.7067V38.0614C45.7067 36.2271 46.7074 35.6078 47.7836 35.6078C48.8095 35.6078 49.732 36.4088 49.7586 37.9318V44.4409H53.3226V38.0614C53.3226 36.3075 54.2466 35.6093 55.3745 35.6093Z" fill="#333333"/>
    <path d="M125.877 43.782C125.91 44.319 126.346 44.7375 126.874 44.7375C127.401 44.7375 127.838 44.319 127.871 43.782C127.871 43.2207 127.424 42.7656 126.874 42.7656C126.323 42.7656 125.877 43.2207 125.877 43.782Z" fill="#333333"/>
</svg>
